<?xml version="1.0" encoding="utf-8"?>
<!DOCTYPE svg PUBLIC "-//W3C//DTD SVG 1.0//EN" "http://www.w3.org/TR/2001/REC-SVG-20010904/DTD/svg10.dtd">
<svg version="1.0" xmlns="http://www.w3.org/2000/svg" width="2508px" height="2508px" viewBox="0 0 2508 2508" preserveAspectRatio="xMidYMid meet">
 <g fill="#ffffff">
  <path d="M0 1254 l0 -1254 1254 0 1254 0 0 1254 0 1254 -1254 0 -1254 0 0 -1254z m739.66 494.74 c0 -4.16 1.47 -7.84 3.18 -8.57 1.47 -0.49 20.82 -1.71 42.62 -2.94 l39.43 -1.96 -20.33 -34.29 c-21.80 -36.25 -25.47 -48.25 -16.65 -55.35 3.18 -2.94 36.25 -3.43 192.51 -3.43 l188.59 0 34.04 57.07 34.04 56.82 93.56 0 93.56 0 -0.73 -12.25 -0.98 -12.25 49.23 0 c35.51 0 49.23 -0.73 49.23 -2.94 0 -1.47 -14.21 -25.47 -31.84 -53.39 -40.17 -63.92 -40.66 -67.35 -11.02 -73.72 11.76 -2.45 108.99 -35.27 129.81 -43.60 15.92 -6.37 20.57 -8.57 55.60 -24.49 6.37 -2.69 12.49 -5.14 13.47 -5.14 1.22 0 8.57 -3.43 16.65 -7.35 8.08 -3.92 16.16 -7.35 18.12 -7.35 1.71 0 7.35 -2.20 12.25 -4.65 4.90 -2.69 17.63 -8.82 28.41 -13.72 10.78 -5.14 26.21 -12.25 34.29 -16.16 8.08 -3.92 21.31 -9.80 29.39 -13.47 8.08 -3.43 16.41 -7.35 18.37 -8.57 1.96 -1.22 23.02 -12 46.54 -23.76 23.51 -12 51.68 -26.94 62.70 -32.82 10.78 -6.12 30.62 -16.90 44.09 -23.76 13.23 -7.10 37.96 -21.06 54.86 -31.11 16.90 -10.04 35.51 -20.57 41.64 -23.51 6.12 -2.94 18.12 -10.04 26.70 -15.92 8.82 -5.88 17.14 -10.53 18.61 -10.53 1.71 0 4.90 -2.20 7.59 -5.14 2.45 -2.94 7.59 -6.61 11.27 -8.57 10.53 -5.39 27.92 -29.88 56.58 -79.84 l6.61 -11.27 -14.21 3.43 c-7.59 1.71 -18.61 3.18 -24.25 3.43 l-10.53 0 0 -34.53 c0 -18.86 1.22 -56.09 2.69 -82.29 l2.69 -47.76 24.98 -39.68 c13.72 -21.55 42.13 -66.37 62.70 -99.44 20.57 -33.06 47.76 -75.93 60.01 -95.52 45.07 -71.52 77.15 -124.18 77.15 -127.11 0 -1.71 -2.20 -2.20 -6.61 -1.22 -14.45 3.18 -51.68 13.72 -69.31 19.59 -17.88 5.63 -41.64 12.74 -83.27 24.25 -11.51 3.18 -41.64 12 -67.35 19.59 -48.74 14.45 -77.64 22.78 -140.83 41.39 -20.82 5.88 -47.76 13.96 -60.01 17.63 -12 3.67 -41.88 12.49 -66.13 19.84 -24.25 7.10 -47.27 14.21 -51.43 15.19 -58.05 16.65 -118.30 34.04 -140.83 40.90 -55.11 16.65 -60.25 18.37 -81.80 24.25 -28.66 8.08 -36.74 7.84 -50.45 -1.47 -16.16 -10.78 -40.90 -23.27 -56.09 -27.68 -54.13 -15.92 -126.38 14.45 -160.42 67.60 -16.41 25.72 -33.06 77.64 -33.31 103.60 0 4.16 -0.98 8.57 -1.96 10.04 -0.98 1.47 -13.72 10.78 -28.66 20.57 -14.70 9.55 -29.15 19.59 -31.84 22.04 -2.69 2.45 -7.59 5.63 -11.02 6.86 -3.43 1.47 -13.72 8.33 -23.27 15.43 -9.31 6.86 -20.33 14.21 -24.49 15.92 -3.92 1.71 -10.53 5.39 -14.70 8.33 -14.45 9.80 -22.53 7.59 -96.25 -25.72 -36.98 -16.90 -68.82 -30.62 -70.29 -30.62 -5.63 0 -18.61 17.14 -45.31 60.01 -32.33 51.68 -33.06 52.66 -41.39 52.66 -3.43 0 -26.94 -6.86 -51.92 -15.19 -40.90 -13.47 -46.29 -14.70 -50.21 -11.51 -2.45 1.71 -18.86 25.72 -36.98 53.15 -31.35 47.76 -32.82 49.47 -40.41 49.47 -4.41 -0.24 -25.72 -6.12 -47.27 -13.23 -36.98 -12.25 -39.43 -12.98 -44.58 -9.06 -4.65 3.43 -31.59 36.49 -54.62 67.11 -7.84 10.53 -9.31 11.27 -19.59 11.51 -7.35 0 -20.82 -3.67 -39.92 -11.02 -20.82 -7.84 -30.13 -10.29 -33.06 -8.82 -2.20 1.22 -15.19 13.47 -28.66 26.94 -28.17 28.41 -28.17 28.41 -63.19 19.59 -72.50 -18.12 -108.01 -61.97 -111.19 -136.91 -2.69 -61.72 8.08 -84.74 91.60 -195.69 22.04 -29.15 38.70 -53.15 37.47 -53.64 -2.94 -0.98 -57.80 22.04 -77.15 32.33 -8.08 4.41 -19.35 9.80 -24.98 12 -26.70 10.53 -66.37 40.41 -97.97 73.48 -53.15 56.09 -84.50 134.22 -84.99 212.35 0 32.57 3.43 55.60 13.72 88.17 28.90 91.11 100.91 172.91 188.10 214.06 41.64 19.59 90.62 33.55 142.05 40.66 l21.06 2.69 4.90 10.29 c2.69 5.63 17.39 32.08 32.82 58.78 l27.68 48.25 75.68 0 75.44 0 0 -7.35z"/>
  <path d="M1795.28 1259.14 c0 -30.37 6.37 -27.68 -95.52 -40.66 -47.76 -6.12 -96.74 -12.25 -108.75 -13.96 l-21.80 -2.94 1.71 -18.37 c2.45 -30.62 1.71 -29.64 22.04 -29.39 9.55 0 32.57 1.96 51.19 4.16 l33.80 4.16 5.39 9.80 c5.14 9.06 6.61 10.04 18.86 11.51 7.35 0.98 28.90 2.20 47.76 2.94 45.31 1.96 62.46 4.41 66.62 10.04 3.92 5.39 3.92 17.39 0.73 45.31 -4.41 37.96 -3.92 36.74 -13.47 36.74 l-8.57 0 0 -19.35z"/>
  <path d="M1981.42 1186.89 c0 -27.68 -0.73 -33.55 -4.16 -37.72 -3.92 -4.41 -15.43 -6.37 -104.83 -17.39 -55.11 -6.86 -103.60 -12.49 -107.52 -12.49 l-7.10 0 1.47 -17.63 c0.73 -9.80 2.45 -20.82 3.92 -24.49 3.18 -8.33 5.39 -8.57 62.21 -2.69 l41.39 4.16 4.41 9.06 c2.69 4.90 7.10 9.55 10.29 10.53 3.18 0.73 25.96 2.69 50.94 3.92 56.33 2.69 65.39 4.16 69.80 10.78 4.65 6.61 4.65 30.37 0 70.05 -1.96 16.90 -3.67 32.08 -3.67 33.80 0 1.71 -3.43 2.94 -8.57 2.94 l-8.57 0 0 -32.82z"/>
  <path d="M2143.07 1062.47 c0 -18.61 -1.96 -23.51 -9.55 -24.98 -3.43 -0.98 -35.02 -4.90 -70.05 -8.82 -35.02 -3.92 -77.64 -9.06 -94.78 -11.27 l-31.35 -4.16 0 -16.16 c0 -23.02 3.43 -28.41 17.14 -28.41 12 0.24 71.52 5.63 79.60 7.35 2.94 0.49 6.86 4.90 9.06 9.55 4.65 9.31 -3.18 8.08 78.13 12.98 21.80 1.47 34.78 3.18 37.47 5.39 4.41 3.67 5.14 24.25 2.20 54.86 l-1.47 16.41 -8.08 0 -8.33 0 0 -12.74z"/>
  <path d="M1416.38 1028.67 c-11.76 -4.65 -17.39 -53.15 -9.31 -80.09 7.84 -26.45 32.08 -43.84 65.15 -46.54 l16.90 -1.47 0 8.82 c0 5.39 -2.45 12.49 -6.12 17.88 -10.29 15.19 -7.10 29.88 9.80 44.82 9.06 7.84 10.53 8.33 33.80 7.59 l13.96 -0.24 0 8.33 c0 6.61 -1.71 10.04 -7.59 14.94 -10.29 8.82 -39.92 22.53 -55.60 25.72 -15.43 3.18 -53.39 3.43 -60.99 0.24z"/>
 </g>
 <g fill="#40aa3c">
  <path d="M557.69 1701.72 c-21.80 -37.72 -28.66 -51.68 -28.66 -58.29 0 -6.12 5.63 -18.86 19.35 -44.09 l19.10 -35.51 -56.58 -1.71 c-77.64 -2.20 -124.67 -9.55 -175.36 -27.68 -57.31 -20.57 -117.07 -62.70 -137.40 -96.74 -12.49 -21.06 -22.78 -49.72 -29.39 -81.31 -4.41 -22.04 -4.90 -30.86 -3.92 -71.76 0.98 -42.37 1.71 -49.23 8.82 -75.93 9.06 -33.80 25.72 -70.78 44.82 -98.46 17.39 -25.72 52.41 -60.25 77.89 -77.15 28.17 -18.86 89.40 -48.49 99.93 -48.49 24.25 0 24 12.49 -0.98 45.31 -28.41 37.47 -61.97 88.66 -71.27 108.26 -21.06 45.56 -20.33 91.85 2.69 137.16 9.06 18.12 28.41 41.39 39.19 47.03 3.43 1.96 6.37 4.65 6.37 5.88 0 6.86 14.70 22.04 28.17 28.66 14.70 7.35 48.49 17.14 59.03 17.14 3.67 0 12.49 -7.84 29.15 -25.72 22.53 -24.25 24.49 -25.72 33.31 -25.72 5.39 0 24.25 5.39 42.86 12.25 18.37 6.86 33.55 12.25 34.04 12.25 0.49 0 15.43 -19.35 33.31 -43.11 l32.57 -43.11 13.72 1.22 c7.35 0.73 28.66 6.37 47.51 12.49 18.61 6.12 36 11.27 38.21 11.27 2.45 0 6.86 -4.16 10.04 -9.06 2.94 -5.14 18.12 -28.41 33.55 -51.43 l27.92 -42.37 10.78 0 c8.82 0 87.93 23.27 96.99 28.66 1.96 0.98 1.22 1.96 41.15 -61.72 15.19 -24.25 28.90 -46.05 30.37 -48.25 5.63 -9.06 14.45 -6.61 69.07 18.86 12.49 5.88 37.96 17.39 57.07 25.72 l34.53 15.19 7.35 -4.41 c4.16 -2.69 41.15 -25.96 82.05 -52.17 53.64 -34.04 74.95 -48.98 75.68 -52.66 0.73 -2.69 2.45 -14.94 4.16 -27.19 12.74 -95.27 65.39 -147.44 146.95 -145.48 14.45 0.24 23.02 -0.49 25.47 -2.69 2.45 -1.96 9.06 -2.69 19.10 -1.96 12.49 0.73 17.88 2.45 30.62 10.53 8.57 5.39 18.12 11.51 21.31 13.47 5.39 3.18 8.82 2.69 42.13 -7.10 19.84 -5.88 56.09 -16.41 80.33 -23.51 148.42 -43.84 284.35 -84.01 334.32 -99.19 31.59 -9.55 62.21 -17.88 67.84 -18.86 13.96 -1.96 22.78 0.73 22.78 6.61 0 2.69 1.47 4.90 3.43 4.90 4.65 0 112.91 -34.78 148.91 -48 29.39 -10.53 44.82 -13.23 46.54 -8.08 0.49 1.47 3.67 0.24 7.59 -2.94 3.92 -2.94 11.76 -5.88 17.88 -6.61 l10.78 -1.22 0 8.57 c0 6.61 -17.14 35.51 -88.91 150.14 -48.98 78.13 -91.60 146.22 -94.78 151.12 -5.39 7.84 -7.35 9.31 -15.19 9.31 -5.14 0 -9.31 -1.22 -9.31 -2.45 0 -4.65 -23.02 -27.19 -32.57 -32.33 -6.12 -2.94 -17.39 -5.39 -31.11 -6.37 -19.84 -1.71 -22.29 -2.45 -31.35 -10.29 -7.59 -6.61 -10.04 -10.53 -10.04 -16.41 -0.24 -8.57 6.37 -14.70 123.44 -111.93 33.80 -28.17 66.13 -55.35 72.25 -60.74 10.29 -9.06 10.53 -9.31 2.45 -4.90 -4.65 2.45 -17.88 10.29 -29.39 16.90 -20.82 12.49 -80.82 46.78 -203.29 117.07 -183.69 105.07 -261.33 147.93 -528.54 292.19 l-52.17 28.17 6.86 3.92 c3.67 2.45 21.31 11.76 38.70 21.06 55.11 28.90 69.80 37.47 80.82 47.27 5.88 5.14 17.39 12.98 25.47 17.39 l14.70 7.84 30.13 -5.14 c160.91 -27.19 348.28 -65.64 471.96 -96.99 39.43 -10.04 74.95 -18.12 78.86 -18.12 6.37 0 7.10 0.73 7.10 7.59 0 8.82 -19.10 41.88 -34.04 59.03 -21.31 24.25 -56.82 42.62 -148.42 76.66 -93.32 34.78 -211.12 71.76 -312.28 97.72 -85.48 22.04 -222.88 50.45 -244.68 50.45 -9.80 0 -10.04 -0.24 -10.04 -8.08 0 -4.41 1.71 -13.47 3.92 -19.84 2.20 -6.37 3.43 -12 2.94 -12.49 -0.49 -0.49 -4.65 10.04 -9.06 23.27 l-7.84 24.49 -8.33 0 -8.08 0 -35.76 69.80 c-19.59 38.21 -35.76 70.78 -35.76 72.25 0 1.47 5.63 12.98 12.74 25.72 11.76 21.55 13.23 23.27 20.08 23.27 10.53 0.24 13.96 3.43 25.47 24 7.35 12.74 10.29 20.82 10.29 27.68 l0 9.55 -92.34 -0.49 -92.09 -0.73 -30.37 -50.21 c-28.41 -47.27 -30.13 -50.94 -29.39 -61.23 0.73 -7.84 9.31 -28.17 29.39 -69.80 15.43 -32.33 27.92 -59.03 27.43 -59.52 -0.49 -0.49 -18.86 1.96 -40.90 5.39 -47.03 7.35 -141.32 20.33 -170.96 23.51 -67.84 7.35 -170.22 15.68 -227.04 18.61 l-32.57 1.71 0 -10.29 c0 -10.29 -0.24 -10.29 -7.84 -9.55 -6.61 0.49 -9.06 2.69 -13.96 11.76 -5.14 9.80 -49.47 86.21 -61.72 106.79 l-4.65 7.59 13.23 26.70 c17.14 33.80 24.74 42.62 38.21 42.62 9.55 0 9.80 0.24 9.80 8.57 l0 8.57 -72.99 0 -72.99 0 -28.66 -49.47z m912.33 -680.64 c16.41 -3.43 50.94 -20.08 58.54 -28.41 l5.88 -6.37 -8.57 1.22 -8.33 1.22 11.76 -10.78 12 -10.78 -3.92 -8.33 c-9.80 -20.33 -36.25 -40.41 -53.64 -40.41 -6.12 0 -7.10 -0.73 -4.90 -2.94 5.39 -5.39 2.94 -7.35 -7.35 -5.63 -37.47 6.12 -60.74 33.31 -60.74 71.03 0 18.12 6.37 37.72 12.98 40.41 7.59 2.94 30.86 2.94 46.29 -0.24z"/>
 </g>
 <g fill="#0d6a2d">
  <path d="M553.52 1715.19 c-15.43 -26.70 -30.13 -53.15 -32.82 -58.78 l-4.90 -10.29 -21.06 -2.69 c-146.95 -20.08 -252.02 -90.38 -311.05 -208.18 -23.51 -47.03 -33.06 -88.17 -32.82 -142.05 0.24 -68.82 18.12 -127.85 55.11 -182.71 29.39 -43.60 89.15 -95.27 127.85 -110.46 5.63 -2.20 16.90 -7.59 24.98 -12 28.90 -15.43 74.95 -33.31 86.70 -33.55 19.10 -0.73 17.14 3.67 -28.66 64.66 -52.66 70.05 -67.60 91.85 -79.35 116.09 -18.37 38.21 -21.06 77.64 -8.33 117.56 15.19 47.03 48.49 75.44 105.07 89.64 l21.55 5.39 27.68 -27.43 c33.06 -32.57 31.59 -32.33 74.21 -16.16 15.92 6.12 30.62 11.02 32.57 11.02 1.96 0 7.59 -5.39 12.25 -11.51 21.80 -29.15 49.96 -63.68 54.62 -67.35 2.94 -2.45 8.08 -4.41 11.51 -4.41 4.90 0 65.88 18.61 83.76 25.72 3.43 1.47 10.29 -7.59 35.27 -45.80 33.80 -51.68 40.90 -60.74 48.49 -60.74 2.94 0 26.21 7.10 52.17 15.68 43.11 14.21 47.27 15.19 50.45 11.51 1.96 -2.20 15.92 -23.76 31.11 -48 15.19 -24.25 30.86 -47.76 35.02 -52.17 12.98 -13.47 18.37 -12 95.27 22.78 37.23 16.90 69.07 30.62 71.03 30.62 1.71 0 6.61 -2.20 10.53 -4.90 4.16 -2.94 10.78 -6.61 14.70 -8.33 4.16 -1.71 15.19 -9.06 24.49 -15.92 9.55 -7.10 19.84 -13.96 23.27 -15.43 3.43 -1.22 8.33 -4.41 11.02 -6.86 2.69 -2.45 17.14 -12.49 31.84 -22.04 14.94 -9.80 27.68 -19.10 28.66 -20.57 0.98 -1.47 1.96 -5.88 1.96 -10.04 0.24 -13.47 9.06 -51.43 16.65 -70.54 16.41 -40.41 41.64 -69.31 76.42 -86.70 27.68 -13.96 44.58 -17.88 75.93 -17.88 36 0 59.27 7.59 94.54 31.11 l12.98 8.57 24 -6.61 c13.23 -3.67 30.62 -8.57 38.70 -11.27 45.56 -13.96 96.50 -28.90 183.69 -53.88 4.16 -0.98 27.19 -8.08 51.43 -15.19 24.25 -7.35 54.13 -16.16 66.13 -19.84 12.25 -3.67 39.19 -11.76 60.01 -17.63 63.19 -18.61 92.09 -26.94 140.83 -41.39 25.72 -7.59 55.84 -16.41 67.35 -19.59 41.64 -11.51 65.39 -18.61 83.27 -24.25 32.57 -10.78 64.66 -19.10 77.64 -20.33 12 -1.22 12.98 -0.98 15.19 4.41 1.47 4.16 0.98 8.08 -1.47 12.98 -3.92 7.59 -51.68 84.99 -90.13 145.97 -13.23 20.82 -40.66 64.41 -60.74 96.74 -20.33 32.33 -45.31 72.25 -55.84 88.42 l-18.86 29.88 -2.69 47.76 c-3.67 65.88 -3.67 102.13 0.49 102.13 1.47 -0.24 9.55 -1.96 17.63 -4.16 22.29 -5.88 29.15 -5.63 30.13 1.22 1.47 9.31 -39.19 76.91 -56.09 93.32 -11.76 11.51 -25.47 22.29 -28.41 22.29 -1.22 0 -9.31 4.65 -18.12 10.53 -8.57 5.88 -20.57 12.98 -26.70 15.92 -6.12 2.94 -24.74 13.47 -41.64 23.51 -16.90 10.04 -41.64 24 -54.86 31.11 -13.47 6.86 -33.31 17.63 -44.09 23.76 -11.02 5.88 -39.19 20.82 -62.70 32.82 -23.51 11.76 -44.58 22.53 -46.54 23.76 -1.96 1.22 -10.29 5.14 -18.37 8.57 -8.08 3.67 -21.31 9.55 -29.39 13.47 -8.08 3.92 -23.51 11.02 -34.29 16.16 -10.78 4.90 -23.51 11.02 -28.41 13.72 -4.90 2.45 -10.53 4.65 -12.25 4.65 -1.96 0 -10.04 3.43 -18.12 7.35 -8.08 3.92 -15.43 7.35 -16.65 7.35 -0.98 0 -7.10 2.45 -13.47 5.14 -27.19 12.49 -38.70 17.63 -43.84 19.59 -3.18 1.22 -8.08 3.18 -11.02 4.41 -19.59 8.33 -118.54 41.64 -131.03 44.33 -8.57 1.71 -16.41 4.41 -17.63 5.88 -1.47 1.71 9.31 21.06 31.84 57.07 18.61 29.88 34.04 55.84 34.04 57.80 0 8.08 -5.39 9.06 -54.62 9.06 l-48.74 0 1.71 5.63 c0.98 2.94 2.20 8.33 2.94 12.25 l1.22 6.61 -102.87 0 -103.11 0 -34.04 -56.82 -34.04 -57.07 -181.49 0 c-164.34 0 -181.98 0.49 -185.65 3.92 -3.67 3.67 -2.20 6.86 18.61 42.13 12.25 21.06 22.04 40.17 21.55 42.62 -0.73 3.92 -5.39 4.65 -43.60 6.86 -40.17 2.20 -42.86 2.69 -43.11 7.35 -0.24 2.69 -0.49 6.37 -0.73 8.08 -0.24 2.20 -18.61 2.94 -83.03 2.94 l-83.03 0 -27.68 -48.25z m161.16 26.94 c-6.61 -0.49 -11.76 -1.96 -11.76 -3.43 0 -1.22 1.71 -2.20 3.92 -2.20 2.20 0 3.43 -0.73 2.94 -1.71 -0.24 -1.22 -8.08 -15.92 -17.14 -32.82 -12.49 -23.02 -16.65 -33.31 -16.65 -40.41 0 -7.59 5.88 -20.08 29.64 -61.97 16.16 -28.90 31.84 -58.05 34.53 -64.66 4.16 -9.31 5.63 -11.02 7.35 -8.08 3.67 6.37 5.88 4.65 12.74 -10.53 7.10 -15.92 11.51 -20.57 17.88 -19.35 7.35 1.47 6.61 12.74 -2.69 32.82 -4.90 10.29 -8.82 19.35 -8.82 20.08 0 1.22 14.94 0.24 96.74 -5.88 47.76 -3.43 106.30 -8.57 148.18 -13.23 42.86 -4.65 210.88 -28.41 212.10 -30.13 0.24 -0.24 5.39 -10.53 11.76 -23.02 6.12 -12.25 12.25 -23.02 13.72 -24 2.94 -1.96 14.70 4.90 14.70 8.57 0 1.22 -12.74 29.15 -28.41 61.72 -15.68 32.82 -34.29 72.50 -41.88 88.17 l-13.23 28.66 30.37 50.94 30.37 50.94 84.74 0.73 c50.94 0.24 84.99 -0.24 84.99 -1.71 0 -3.92 -20.08 -37.96 -24.25 -41.15 -2.20 -1.71 -5.14 -2.69 -6.86 -1.96 -4.41 1.47 -28.17 -41.64 -29.39 -53.64 -0.98 -9.06 2.45 -17.39 34.78 -82.29 28.90 -58.54 36.49 -72.25 40.17 -71.76 3.92 0.49 6.61 -4.65 15.43 -30.62 10.29 -30.62 10.78 -31.11 17.88 -31.11 6.37 0 7.35 0.98 8.08 7.35 0.24 4.16 -2.20 16.16 -5.39 26.94 -3.43 10.53 -5.63 19.84 -5.14 20.33 1.47 1.71 80.58 -13.23 140.83 -26.70 134.71 -29.64 281.42 -72.99 410.24 -120.99 92.09 -34.29 127.60 -52.90 148.67 -77.15 8.57 -10.04 34.29 -49.47 33.06 -50.70 -0.24 0 -32.33 7.84 -71.52 17.63 -38.94 10.04 -88.66 21.80 -110.21 26.70 -129.56 28.41 -376.20 74.95 -397.75 74.95 -10.04 0 -32.57 -11.76 -48.98 -25.72 -11.02 -9.55 -22.78 -16.41 -78.62 -46.05 -49.72 -26.21 -59.03 -31.84 -57.07 -33.80 1.22 -1.22 34.04 -19.59 73.23 -40.41 133.97 -72.50 159.20 -85.97 225.08 -122.22 115.11 -62.94 212.59 -118.05 416.37 -235.13 89.15 -51.19 183.45 -106.54 185.90 -108.99 4.41 -4.41 -0.49 -5.14 -9.55 -1.47 -11.51 4.90 -13.23 4.90 -7.10 0.24 6.12 -4.65 -27.92 4.90 -146.95 40.66 -28.17 8.33 -31.84 9.06 -35.27 5.63 -4.41 -4.65 0.98 -5.88 -93.56 22.29 -67.84 20.33 -164.59 48.74 -315.95 93.32 -103.60 30.62 -120.50 35.27 -124.42 35.27 -2.45 0 -13.47 -6.12 -24.98 -13.47 -21.06 -13.72 -34.78 -18.37 -41.15 -14.21 -2.45 1.47 -8.08 1.22 -16.16 -0.98 -41.64 -10.78 -84.25 3.18 -117.32 38.45 -27.19 28.90 -40.41 60.01 -48.49 114.38 -2.20 14.94 -4.41 21.55 -8.08 24.74 -2.94 2.45 -23.76 16.41 -46.78 31.11 -22.78 14.70 -56.33 36.49 -74.21 48.25 -25.96 17.14 -34.53 21.55 -41.39 21.55 -8.33 0 -57.07 -20.33 -126.13 -52.41 l-23.76 -11.02 -29.88 48.25 c-41.15 66.13 -39.43 64.17 -53.39 64.17 -7.35 0 -26.70 -5.14 -54.86 -14.45 l-43.60 -14.70 -16.90 26.21 c-9.31 14.45 -24.98 38.21 -34.78 52.66 l-17.88 26.70 -14.70 -1.22 c-8.08 -0.73 -30.13 -6.12 -49.23 -12.49 -18.86 -6.12 -35.02 -11.27 -35.76 -11.27 -0.73 0 -15.92 18.86 -33.80 41.64 l-32.33 41.64 -10.29 0 c-6.37 0 -22.29 -4.41 -40.41 -11.02 -16.41 -6.12 -31.35 -11.02 -32.82 -11.02 -1.71 0.24 -13.47 11.76 -26.21 25.72 l-23.27 25.47 -16.16 0.24 c-30.86 0 -76.66 -15.43 -88.42 -29.88 -3.92 -5.14 -6.37 -9.31 -5.39 -9.31 0.98 0 -2.69 -3.18 -8.08 -7.10 -42.37 -30.62 -65.39 -103.36 -51.19 -162.63 8.33 -35.76 34.29 -78.62 99.93 -165.08 1.47 -1.96 0.49 -3.67 -2.94 -5.63 -4.65 -2.45 -10.29 -0.49 -41.15 14.70 -47.03 22.78 -72.74 40.17 -99.68 67.35 -39.19 39.19 -65.64 85.48 -79.84 139.61 -6.37 25.23 -7.84 35.02 -8.82 68.58 -0.98 33.55 -0.49 42.62 3.92 64.41 6.61 31.59 16.90 60.25 29.39 81.31 20.33 34.04 80.09 76.17 137.40 96.74 49.47 17.63 96.01 25.23 166.79 27.43 l50.70 1.47 12.74 -23.51 c6.86 -12.98 14.70 -26.21 17.14 -29.15 4.16 -5.14 4.41 -5.14 10.78 -0.98 4.90 3.18 6.12 5.39 4.90 9.31 -0.73 2.69 -16.90 33.31 -35.51 67.84 -19.35 35.51 -33.55 64.17 -32.82 66.37 0.98 1.96 13.72 24.98 28.90 50.94 l27.43 47.03 66.13 -0.49 c36.25 -0.24 60.99 -0.73 54.62 -1.22z m928.74 -447.47 c11.51 -1.71 29.64 -5.14 40.41 -7.35 10.78 -2.20 39.92 -7.84 64.90 -12.74 24.98 -4.65 46.29 -9.55 47.27 -10.78 1.22 -0.98 2.94 -7.84 4.16 -14.94 l1.96 -13.23 0.24 18.12 c0 10.04 0.98 17.63 1.71 16.65 1.47 -1.22 8.08 -48.98 8.33 -58.54 0 -7.59 -9.06 -14.21 -18.86 -14.21 -7.59 0 -10.04 -1.22 -13.23 -6.86 -3.92 -6.86 -4.41 -7.10 -36.74 -9.55 -30.86 -2.45 -32.82 -2.94 -37.72 -9.06 -15.43 -19.84 -12.49 -18.61 -41.64 -21.31 -47.27 -4.41 -49.96 -4.41 -56.09 3.43 -4.16 5.14 -7.35 6.61 -15.43 6.61 -11.02 0 -11.02 0 -14.21 22.78 -1.47 8.82 -0.98 11.51 1.47 11.51 2.69 0 3.67 7.59 4.16 36.25 0.73 49.23 1.47 51.43 17.14 60.74 7.10 4.41 14.70 7.35 17.14 6.86 2.20 -0.73 13.47 -2.69 24.98 -4.41z m243.70 -45.56 c55.84 -12 88.42 -20.08 91.60 -21.80 2.20 -1.47 4.16 -10.78 5.63 -27.43 2.94 -34.78 3.67 -36.74 4.41 -9.55 0.73 28.41 2.69 20.33 7.59 -29.15 3.92 -40.41 2.69 -44.09 -16.41 -48 -6.86 -1.22 -14.21 -3.92 -16.41 -5.63 -2.69 -2.20 -52.66 -10.04 -65.88 -10.29 -0.98 0 -5.14 -4.90 -9.55 -10.78 -4.16 -6.12 -9.55 -11.76 -11.76 -12.74 -2.20 -0.98 -19.35 -3.67 -38.21 -5.88 l-34.29 -4.41 -7.35 7.10 c-5.14 4.90 -10.04 7.10 -15.43 7.10 -9.06 0 -11.02 3.67 -13.96 22.78 -1.47 9.80 -1.22 11.51 2.20 11.51 2.94 0 3.92 2.69 3.92 11.76 0 20.08 1.22 21.55 17.39 24.74 12.74 2.69 16.16 4.65 29.88 18.12 20.33 19.84 22.53 26.21 20.57 62.94 l-1.71 28.41 11.76 -1.71 c6.37 -0.73 22.53 -3.92 36 -7.10z m181.98 -41.64 c11.76 -2.45 32.33 -7.59 46.05 -11.27 l24.74 -6.61 1.47 -33.31 c0.98 -18.37 2.45 -52.41 3.18 -75.44 0.98 -23.27 2.69 -42.37 3.67 -42.37 1.22 0 2.45 6.86 2.45 15.43 l0.49 15.19 1.71 -13.47 c3.18 -22.78 2.69 -40.66 -0.98 -43.84 -1.96 -1.71 -7.59 -3.67 -12.98 -4.41 -5.14 -0.73 -10.78 -3.43 -12.49 -5.88 -4.41 -6.12 -18.12 -9.55 -39.19 -9.55 -17.88 0 -17.88 0 -28.17 -10.53 -11.51 -11.76 -12 -12 -55.35 -16.65 l-27.92 -2.94 -6.37 7.84 c-4.41 5.39 -8.08 7.59 -12.25 7.10 -4.41 -0.49 -6.86 0.98 -9.31 5.39 -4.16 8.33 -4.16 24.49 0.24 24.49 2.45 0 3.67 7.10 4.90 28.66 0.98 15.68 2.20 29.39 2.94 30.62 0.73 0.98 4.90 1.96 9.06 1.96 13.96 0 26.45 5.14 36 14.21 5.14 4.90 12 11.02 15.68 13.47 12.49 8.57 13.23 23.51 4.65 109.97 l-1.22 13.96 13.72 -3.67 c7.59 -1.96 23.51 -5.63 35.27 -8.33z m112.91 -213.82 c9.06 -13.72 169.49 -269.66 177.32 -282.88 4.41 -7.59 4.41 -7.84 0.24 -6.37 -8.82 3.18 -167.28 132.26 -263.54 214.55 l-31.35 26.70 10.78 9.31 c10.29 8.82 11.76 9.31 31.35 10.53 13.72 0.98 23.76 2.94 30.37 6.37 9.80 4.90 32.82 27.68 32.82 32.33 0 5.39 3.92 1.96 12 -10.53z"/>
  <path d="M1497.94 987.04 c-8.33 -2.69 -20.08 -13.23 -24.98 -22.53 -1.96 -3.67 -3.43 -13.23 -3.43 -21.06 0 -19.35 7.10 -30.86 20.08 -31.84 18.37 -1.47 45.56 18.86 56.09 42.13 6.61 14.45 5.88 19.59 -3.43 26.70 -9.31 7.10 -32.08 10.53 -44.33 6.61z"/>
 </g>
 <g fill="#92c77b">
  <path d="M1594.44 1300.05 c-16.16 -9.80 -16.16 -10.04 -18.61 -64.90 l-1.71 -39.92 7.10 0 c3.92 0 13.72 0.98 21.80 2.45 8.08 1.22 54.37 7.35 102.87 13.47 103.60 12.98 96.74 10.04 96.74 41.88 0 11.27 -0.49 20.57 -1.47 20.57 -1.47 0 -83.03 15.68 -109.97 21.06 -22.78 4.65 -53.64 10.04 -71.03 12 -11.02 1.47 -13.72 0.73 -25.72 -6.61z"/>
  <path d="M1830.30 1257.43 c0.98 -5.14 2.20 -18.37 3.18 -29.39 2.20 -26.94 -0.98 -35.27 -20.33 -54.13 -13.72 -13.47 -17.14 -15.43 -29.88 -18.12 -16.65 -3.18 -17.39 -4.41 -17.39 -28.41 0 -15.19 0 -15.43 6.86 -15.43 3.67 0 51.92 5.63 107.03 12.49 89.40 11.02 100.91 12.98 104.83 17.39 3.43 4.16 4.16 10.53 4.65 38.45 0.73 48.25 0.73 51.92 -2.94 54.13 -4.16 2.69 -63.68 17.14 -70.05 17.14 -2.45 0 -15.43 2.69 -28.66 6.12 -12.98 3.18 -31.59 6.61 -41.39 7.59 l-17.39 1.71 1.47 -9.55z"/>
  <path d="M2012.03 1215.55 c8.82 -83.76 9.06 -87.44 6.12 -98.46 -1.47 -5.88 -5.14 -11.76 -9.06 -14.21 -3.43 -2.45 -9.80 -7.84 -13.96 -12 -10.29 -10.29 -16.16 -12.98 -32.82 -15.19 l-13.96 -1.71 -1.47 -14.70 c-0.98 -8.08 -1.71 -23.27 -1.96 -33.55 -0.24 -21.80 -2.20 -20.57 25.47 -16.41 9.55 1.22 50.21 6.12 90.62 10.78 40.41 4.65 76.42 9.06 80.09 10.04 5.39 0.98 7.10 3.18 8.33 10.29 2.45 12 2.20 60.01 0 113.40 l-1.96 42.86 -16.16 4.41 c-9.06 2.20 -21.80 5.63 -28.66 7.59 -14.70 3.92 -87.19 20.82 -90.13 20.82 -1.22 0 -1.47 -6.37 -0.49 -13.96z"/>
  <path d="M1767.11 1194.97 c-9.31 -0.98 -21.06 -1.22 -25.72 -0.73 -4.65 0.73 -20.08 -0.24 -34.29 -1.96 l-25.47 -3.18 -5.63 -9.80 -5.39 -9.80 -40.41 -4.90 -40.17 -4.90 8.33 -9.80 8.08 -9.80 17.88 0.24 c9.80 0 30.62 1.47 46.05 2.94 30.37 2.94 27.43 1.47 42.86 21.55 4.90 6.12 6.86 6.61 37.72 9.06 34.78 2.69 36 3.43 40.66 18.37 1.71 6.12 3.18 5.88 -24.49 2.69z"/>
  <path d="M1901.82 1109.01 c-31.35 -3.43 -32.57 -3.67 -37.72 -13.96 l-4.90 -9.31 -32.57 -2.94 c-17.88 -1.71 -36.74 -3.92 -41.88 -4.90 l-9.31 -1.47 11.02 -10.78 11.02 -10.78 38.70 4.16 c21.31 2.20 41.64 5.39 45.07 6.61 3.67 1.47 10.04 7.35 14.21 13.47 4.41 5.88 8.57 10.78 9.55 10.78 0.98 0 15.43 1.71 32.33 3.67 25.72 2.94 31.35 4.41 35.02 8.82 2.20 2.94 4.16 6.12 4.16 7.10 0 2.45 -49.72 1.96 -74.70 -0.49z"/>
  <path d="M2083.06 1003.93 c-17.39 -0.73 -34.29 -1.71 -37.47 -1.96 -3.67 -0.24 -6.86 -2.94 -9.55 -8.82 -4.90 -10.04 -4.41 -10.04 -46.05 -13.72 -17.39 -1.47 -32.82 -3.67 -34.04 -4.65 -0.98 -1.22 0.98 -5.88 4.65 -10.78 6.12 -8.08 7.84 -8.82 19.35 -8.82 6.86 0 26.21 1.71 43.11 3.67 16.90 1.96 31.11 3.67 31.35 3.67 0.49 0 5.63 4.90 11.76 11.02 l10.53 11.02 19.10 0.24 c24.25 0 34.78 3.67 40.66 13.96 l4.65 7.84 -13.23 -0.49 c-7.10 -0.24 -27.19 -1.22 -44.82 -2.20z"/>
 </g>
 <g fill="#56b84a">
  <path d="M696.31 1731.84 c-8.33 -9.55 -35.02 -62.21 -35.02 -68.82 0 -2.20 0.98 -4.90 2.20 -6.12 2.94 -3.18 54.86 -92.09 70.29 -120.01 9.80 -18.12 12 -21.06 12.74 -15.92 0.49 3.43 1.96 7.35 3.18 8.82 3.18 3.92 -0.73 12 -33.80 71.03 -15.19 27.19 -28.66 52.17 -30.37 55.60 -2.45 5.63 -1.47 9.06 11.27 32.82 7.84 14.45 17.39 32.33 21.31 39.43 l7.35 12.74 -10.78 -0.24 c-9.06 -0.24 -11.76 -1.47 -18.37 -9.31z"/>
  <path d="M1366.42 1694.12 c-3.67 -5.63 -11.51 -19.84 -17.88 -31.59 l-11.51 -21.31 39.92 -78.38 40.17 -78.13 5.88 4.41 5.63 4.41 -5.39 12.98 c-3.18 7.10 -19.35 40.41 -36 73.72 -34.04 68.33 -32.82 62.46 -17.63 86.70 10.78 16.90 20.08 36.74 15.68 33.06 -3.43 -2.94 -4.65 -2.69 -8.33 0.49 -3.92 3.67 -4.65 3.18 -10.53 -6.37z"/>
  <path d="M449.43 1381.11 c-19.84 -2.94 -46.54 -11.02 -60.01 -18.61 -6.12 -3.18 -14.70 -10.78 -19.10 -16.90 -4.41 -5.88 -7.59 -10.78 -7.10 -10.78 0.49 0 8.33 3.92 17.88 8.57 21.80 11.02 52.17 20.57 70.78 22.29 l14.70 1.22 24.49 -26.94 c13.47 -14.94 25.72 -27.43 27.19 -28.17 1.22 -0.49 18.86 4.90 39.19 12.25 20.08 7.35 37.72 13.23 39.43 13.23 1.47 0 17.39 -18.86 35.27 -41.88 17.88 -23.02 34.04 -42.62 36 -43.35 1.96 -0.73 20.82 4.41 41.88 11.27 21.06 6.86 42.13 12.98 46.78 13.96 l8.57 1.47 17.88 -26.45 c9.80 -14.45 25.47 -38.45 35.02 -52.90 9.31 -14.45 18.37 -26.94 20.08 -27.68 1.47 -0.49 24.49 6.12 50.70 14.94 26.21 8.82 49.47 15.92 51.68 15.92 5.39 0 10.78 -7.35 46.05 -64.41 16.65 -26.70 31.59 -49.23 33.55 -49.96 1.71 -0.49 24.49 8.33 50.45 20.08 96.50 43.84 101.64 45.80 107.77 42.62 3.18 -1.71 18.37 -11.51 33.80 -21.80 15.43 -10.29 47.03 -30.62 69.80 -45.31 23.02 -14.70 43.84 -28.66 46.78 -31.11 3.67 -3.18 5.88 -9.80 8.08 -24.74 8.08 -53.88 21.31 -85.23 47.76 -113.64 9.31 -9.80 21.55 -20.82 27.43 -24.25 26.70 -15.68 56.33 -21.80 86.95 -17.88 19.35 2.45 42.37 9.06 32.57 9.31 -2.94 0.24 -6.61 1.96 -8.33 3.92 -2.69 3.18 -7.10 3.43 -24.25 2.20 -52.90 -3.92 -100.17 23.02 -125.64 71.27 -10.53 20.33 -17.39 43.35 -21.31 73.48 -1.71 12.25 -3.43 24.25 -4.16 27.19 -0.49 3.67 -18.37 16.16 -60.25 42.86 -32.82 20.57 -70.29 44.58 -83.27 52.90 -12.98 8.57 -25.47 15.43 -27.68 15.43 -4.16 0 -57.07 -22.53 -99.44 -42.37 -48.49 -22.78 -51.92 -24 -54.13 -20.82 -0.98 1.71 -13.72 22.04 -28.17 44.82 -14.70 23.02 -30.37 48 -35.02 55.84 -10.04 16.65 -3.18 17.14 -65.39 -3.18 -24.49 -8.08 -46.05 -14.70 -48 -14.70 -3.18 0 -37.72 49.47 -64.17 91.85 -5.14 8.08 -9.31 14.94 -9.55 15.19 -0.98 0.98 -35.51 -8.82 -61.48 -17.39 -43.11 -14.45 -34.78 -17.88 -72.25 31.59 -17.88 23.76 -34.04 43.84 -36 44.58 -1.96 0.73 -21.06 -5.14 -42.86 -12.98 l-39.19 -14.21 -26.21 27.43 c-14.21 15.19 -26.94 27.43 -28.41 27.19 -1.22 -0.24 -9.06 -1.22 -17.14 -2.45z"/>
  <path d="M401.92 994.63 c-2.69 -1.71 -2.45 -2.69 1.71 -4.90 7.84 -4.16 10.78 -3.43 7.35 2.20 -3.43 5.39 -4.16 5.63 -9.06 2.69z"/>
  <path d="M2123.96 772.24 c-2.45 -0.98 -2.20 -2.45 0.98 -6.12 3.92 -3.92 3.92 -5.14 0.98 -6.86 -4.16 -2.69 -6.12 -1.71 31.84 -13.23 119.03 -35.51 216.02 -62.94 217.25 -61.72 0.73 0.73 -1.96 4.16 -5.63 7.84 -3.92 3.67 -5.39 5.88 -3.43 4.65 2.45 -1.22 1.96 -0.24 -0.98 3.18 -5.14 6.12 -8.82 7.59 -3.92 1.71 5.14 -6.37 -1.96 -4.41 -18.61 4.65 -8.33 4.65 -15.68 7.59 -16.16 6.12 -0.49 -1.22 -13.96 2.45 -30.13 8.33 -31.59 11.51 -121.24 40.66 -143.28 46.54 -19.10 5.14 -25.23 6.37 -28.90 4.90z"/>
 </g>
</svg>